<svg width="114" height="69" viewBox="0 0 114 69" fill="none" xmlns="http://www.w3.org/2000/svg">
<path d="M1.35781 33.4323C1.35781 33.4323 21.0972 13.0934 38.1806 8.94928C60.8766 3.44363 77.1819 35.2533 75.7172 50.9998C74.2524 66.7462 58.8721 68.211 48.9849 66.7462C39.0976 65.2814 31.5906 53.1425 35.0694 39.4646C38.5483 25.7867 61.8327 0.0765463 94.304 2.68099C126.775 5.28544 142.451 22.9847 129.793 41.1704C125.157 47.8305 119.119 51.2124 112.813 53.1425C106.506 55.0726 93.457 51.59 94.5196 38.3412C95.5823 25.0924 122.765 2.89132 146.004 6.82769C166.817 10.3532 186.356 26.2172 185.048 42.5243C183.74 58.8314 168.332 57.5956 165.022 57.33C161.711 57.0645 152.772 55.0646 151.95 42.9475C151.127 30.8305 160.453 -7.14292 210.251 3.13417" stroke="#AEABAB" stroke-width="2" stroke-linecap="round"/>
</svg>
