<svg width="107" height="68" viewBox="0 0 107 68" fill="none" xmlns="http://www.w3.org/2000/svg">
<path d="M-102.992 33.1779C-102.992 33.1779 -83.2528 12.839 -66.1695 8.69488C-43.4734 3.18924 -27.1681 34.999 -28.6329 50.7454C-30.0977 66.4918 -45.4779 67.9566 -55.3652 66.4918C-65.2525 65.027 -72.7595 52.8881 -69.2806 39.2102C-65.8018 25.5323 -42.5174 -0.177848 -10.046 2.4266C22.4254 5.03104 38.1011 22.7303 25.4425 40.916C20.8066 47.5761 14.7688 50.958 8.46248 52.8881C2.15617 54.8182 -10.8931 51.3356 -9.83041 38.0868C-8.76776 24.838 18.4148 2.63693 41.6537 6.5733C62.467 10.0988 82.0063 25.9628 80.6983 42.2699C79.3903 58.577 63.9823 57.3412 60.6715 57.0756C57.3607 56.8101 48.4219 54.8102 47.5995 42.6931C46.7772 30.5761 56.1027 -7.39731 105.901 2.87978" stroke="#AEABAB" stroke-width="2" stroke-linecap="round"/>
</svg>
