<svg width="1440" height="2333" viewBox="0 0 1440 2333" fill="none" xmlns="http://www.w3.org/2000/svg">
<g opacity="0.2">
<g filter="url(#filter0_f_52_857)">
<path d="M163.884 301.546C118.11 281.996 -13.2787 490.862 -74.7575 600.324C-75.7622 602.113 -76.2541 604.071 -76.2541 606.123V633.043C-76.2541 634.259 -76.4392 635.469 -76.803 636.63L-104.975 726.55C-105.498 728.217 -105.65 729.979 -105.421 731.711L-78.2114 937.468C-77.2062 945.069 -69.4278 949.791 -62.2206 947.175L243.041 836.372C250.866 833.532 259.135 839.327 259.135 847.652V1069.93C259.135 1072.57 260.008 1075.14 261.618 1077.24L456.775 1331.35C459.757 1335.23 464.798 1336.91 469.514 1335.6L915.358 1211.35C920.737 1209.85 924.378 1204.98 924.13 1199.4C915.011 994.619 896.007 602.994 889.666 602.994C881.617 602.994 221.571 326.183 163.884 301.546Z" fill="#00B2FF"/>
</g>
<g filter="url(#filter1_f_52_857)">
<path d="M888.277 1457.29L873.348 1027.04C872.992 1016.79 861.716 1010.89 853.777 1016.42C816.97 1042.05 752.952 1074.3 691.621 1066.75C619.348 1057.86 535.84 933.094 501.059 868.243C499.734 865.774 497.794 863.9 495.335 862.849C407.024 825.077 207.73 787.584 86.8678 929.312C-66.3693 1109 -229.291 931.643 -240.826 947.656C-249.99 960.378 -295.948 1244.51 -318.24 1387.9C-318.55 1389.89 -319.3 1391.7 -320.444 1393.29L-472.97 1605.03C-477.744 1611.66 -475.093 1621.45 -467.657 1624.36C-355.288 1668.3 -138.11 1750.17 -60.0473 1768.07C18.0055 1785.96 128.445 1941.26 180.335 2026.85C184.086 2033.03 191.857 2034.57 197.226 2030.17L883.839 1467.46C886.765 1465.06 888.415 1461.27 888.277 1457.29Z" fill="#00FF47"/>
</g>
</g>
<g opacity="0.4">
<g filter="url(#filter2_f_52_857)">
<path d="M1246.26 1676.34C1281.93 1689.41 1374.91 1524.81 1418.32 1438.23C1419.25 1436.39 1419.65 1434.4 1419.56 1432.35L1418.67 1412.87C1418.61 1411.66 1418.74 1410.44 1419.05 1409.26L1437.21 1340.21C1437.66 1338.51 1437.73 1336.75 1437.42 1335.03L1410.07 1182.48C1408.71 1174.94 1400.73 1170.64 1393.65 1173.64L1170.48 1268.16C1162.8 1271.41 1154.28 1266.06 1153.9 1257.75L1146.32 1092.33C1146.2 1089.69 1145.21 1087.17 1143.5 1085.16L986.842 900.572C983.686 896.854 978.577 895.444 973.929 897.008L640.512 1009.19C635.208 1010.98 631.798 1016.08 632.302 1021.64C646.548 1178.79 674.623 1475.33 679.46 1475.07C685.629 1474.74 1201.18 1659.82 1246.26 1676.34Z" fill="#00B2FF"/>
</g>
<g filter="url(#filter3_f_52_857)">
<path d="M650.638 821.792L676.605 1143.64C677.43 1153.87 689.025 1159.21 696.826 1153.45C724.688 1132.87 770.114 1108.45 814.945 1111.55C870.31 1115.38 938.204 1206.49 967.431 1254.99C968.872 1257.38 970.926 1259.18 973.433 1260.09C1042.87 1285.27 1195.96 1305.16 1283.23 1192.09C1394.35 1048.1 1525.44 1177.34 1533.72 1164.6C1540.28 1154.49 1565.43 935.765 1577.5 824.739C1577.72 822.731 1578.39 820.884 1579.46 819.235L1686.42 654.543C1690.89 647.668 1687.75 638.01 1680.18 635.508C1591.57 606.183 1426 553.65 1366.36 543.276C1306.73 532.903 1218.26 421.362 1174.82 357.421C1170.77 351.46 1162.91 350.309 1157.75 354.991L654.605 811.396C651.793 813.947 650.317 817.815 650.638 821.792Z" fill="#00FF47"/>
</g>
</g>
<defs>
<filter id="filter0_f_52_857" x="-405.524" y="0.26387" width="1629.67" height="1635.78" filterUnits="userSpaceOnUse" color-interpolation-filters="sRGB">
<feFlood flood-opacity="0" result="BackgroundImageFix"/>
<feBlend mode="normal" in="SourceGraphic" in2="BackgroundImageFix" result="shape"/>
<feGaussianBlur stdDeviation="150" result="effect1_foregroundBlur_52_857"/>
</filter>
<filter id="filter1_f_52_857" x="-775.368" y="528.317" width="1963.65" height="1804.37" filterUnits="userSpaceOnUse" color-interpolation-filters="sRGB">
<feFlood flood-opacity="0" result="BackgroundImageFix"/>
<feBlend mode="normal" in="SourceGraphic" in2="BackgroundImageFix" result="shape"/>
<feGaussianBlur stdDeviation="150" result="effect1_foregroundBlur_52_857"/>
</filter>
<filter id="filter2_f_52_857" x="332.253" y="596.379" width="1405.36" height="1380.69" filterUnits="userSpaceOnUse" color-interpolation-filters="sRGB">
<feFlood flood-opacity="0" result="BackgroundImageFix"/>
<feBlend mode="normal" in="SourceGraphic" in2="BackgroundImageFix" result="shape"/>
<feGaussianBlur stdDeviation="150" result="effect1_foregroundBlur_52_857"/>
</filter>
<filter id="filter3_f_52_857" x="350.595" y="52.1027" width="1637.88" height="1527.5" filterUnits="userSpaceOnUse" color-interpolation-filters="sRGB">
<feFlood flood-opacity="0" result="BackgroundImageFix"/>
<feBlend mode="normal" in="SourceGraphic" in2="BackgroundImageFix" result="shape"/>
<feGaussianBlur stdDeviation="150" result="effect1_foregroundBlur_52_857"/>
</filter>
</defs>
</svg>
