<svg width="18" height="18" viewBox="0 0 18 18" fill="none" xmlns="http://www.w3.org/2000/svg">
<path d="M8.99925 5.5332C8.07948 5.5332 7.19738 5.89858 6.547 6.54896C5.89663 7.19933 5.53125 8.08143 5.53125 9.0012C5.53125 9.92097 5.89663 10.8031 6.547 11.4534C7.19738 12.1038 8.07948 12.4692 8.99925 12.4692C9.91902 12.4692 10.8011 12.1038 11.4515 11.4534C12.1019 10.8031 12.4672 9.92097 12.4672 9.0012C12.4672 8.08143 12.1019 7.19933 11.4515 6.54896C10.8011 5.89858 9.91902 5.5332 8.99925 5.5332ZM8.99925 11.2535C8.40172 11.2535 7.82866 11.0161 7.40614 10.5936C6.98362 10.171 6.74625 9.59799 6.74625 9.00045C6.74625 8.40292 6.98362 7.82986 7.40614 7.40734C7.82866 6.98482 8.40172 6.74745 8.99925 6.74745C9.59678 6.74745 10.1698 6.98482 10.5924 7.40734C11.0149 7.82986 11.2523 8.40292 11.2523 9.00045C11.2523 9.59799 11.0149 10.171 10.5924 10.5936C10.1698 11.0161 9.59678 11.2535 8.99925 11.2535Z" fill="#00FF47"/>
<path d="M12.6045 6.21368C13.051 6.21368 13.413 5.8517 13.413 5.40518C13.413 4.95866 13.051 4.59668 12.6045 4.59668C12.158 4.59668 11.796 4.95866 11.796 5.40518C11.796 5.8517 12.158 6.21368 12.6045 6.21368Z" fill="#00FF47"/>
<path d="M15.3998 4.58341C15.2262 4.13504 14.9608 3.72787 14.6208 3.38795C14.2807 3.04803 13.8735 2.78286 13.425 2.60941C12.9003 2.41242 12.3459 2.30591 11.7855 2.29441C11.0633 2.26291 10.8345 2.25391 9.00303 2.25391C7.17153 2.25391 6.93678 2.25391 6.22053 2.29441C5.66057 2.30532 5.10659 2.41186 4.58253 2.60941C4.13398 2.78266 3.7266 3.04776 3.38653 3.3877C3.04645 3.72765 2.7812 4.13492 2.60778 4.58341C2.41075 5.10812 2.30449 5.66253 2.29353 6.22291C2.26128 6.94441 2.25153 7.17316 2.25153 9.00541C2.25153 10.8369 2.25153 11.0702 2.29353 11.7879C2.30478 12.3489 2.41053 12.9024 2.60778 13.4282C2.78168 13.8765 3.0472 14.2836 3.38735 14.6235C3.72751 14.9634 4.13482 15.2286 4.58328 15.4022C5.10635 15.6071 5.66055 15.7212 6.22203 15.7397C6.94428 15.7712 7.17303 15.7809 9.00453 15.7809C10.836 15.7809 11.0708 15.7809 11.787 15.7397C12.3474 15.7283 12.9017 15.622 13.4265 15.4254C13.8748 15.2515 14.282 14.9861 14.622 14.6461C14.962 14.3061 15.2274 13.899 15.4013 13.4507C15.5985 12.9257 15.7043 12.3722 15.7155 11.8112C15.7478 11.0897 15.7575 10.8609 15.7575 9.02866C15.7575 7.19641 15.7575 6.96391 15.7155 6.24616C15.7068 5.67786 15.6 5.11534 15.3998 4.58341ZM14.4863 11.7324C14.4814 12.1646 14.4025 12.5928 14.253 12.9984C14.1404 13.2901 13.968 13.5549 13.7468 13.7759C13.5257 13.9969 13.2607 14.1692 12.969 14.2817C12.5679 14.4305 12.1443 14.5094 11.7165 14.5149C11.004 14.5479 10.803 14.5562 8.97603 14.5562C7.14753 14.5562 6.96078 14.5562 6.23478 14.5149C5.80722 14.5097 5.38377 14.4308 4.98303 14.2817C4.69029 14.1699 4.42428 13.9979 4.20219 13.7769C3.98011 13.5558 3.8069 13.2906 3.69378 12.9984C3.54636 12.5972 3.46751 12.174 3.46053 11.7467C3.42828 11.0342 3.42078 10.8332 3.42078 9.00616C3.42078 7.17841 3.42078 6.99166 3.46053 6.26491C3.46537 5.83292 3.54427 5.40497 3.69378 4.99966C3.92253 4.40791 4.39128 3.94216 4.98303 3.71566C5.38397 3.56726 5.80729 3.48838 6.23478 3.48241C6.94803 3.45016 7.14828 3.44116 8.97603 3.44116C10.8038 3.44116 10.9913 3.44116 11.7165 3.48241C12.1443 3.48755 12.568 3.56646 12.969 3.71566C13.2607 3.82836 13.5256 4.00081 13.7468 4.22193C13.9679 4.44305 14.1403 4.70796 14.253 4.99966C14.4004 5.40087 14.4793 5.82403 14.4863 6.25141C14.5185 6.96466 14.5268 7.16491 14.5268 8.99266C14.5268 10.8197 14.5268 11.0162 14.4945 11.7332H14.4863V11.7324Z" fill="#00FF47"/>
</svg>
