<svg width="18" height="18" viewBox="0 0 18 18" fill="none" xmlns="http://www.w3.org/2000/svg">
<path d="M3.73725 5.39821C4.64355 5.39821 5.37825 4.66351 5.37825 3.75721C5.37825 2.85091 4.64355 2.11621 3.73725 2.11621C2.83095 2.11621 2.09625 2.85091 2.09625 3.75721C2.09625 4.66351 2.83095 5.39821 3.73725 5.39821Z" fill="#00FF47"/>
<path d="M6.92773 6.64102V15.7453H9.75448V11.243C9.75448 10.055 9.97798 8.90452 11.451 8.90452C12.9037 8.90452 12.9217 10.2628 12.9217 11.318V15.746H15.75V10.7533C15.75 8.30077 15.222 6.41602 12.3555 6.41602C10.9792 6.41602 10.0567 7.17127 9.67948 7.88602H9.64123V6.64102H6.92773ZM2.32123 6.64102H5.15248V15.7453H2.32123V6.64102Z" fill="#00FF47"/>
</svg>
