<svg width="131" height="40" viewBox="0 0 131 40" fill="none" xmlns="http://www.w3.org/2000/svg">
<path d="M10.147 9.35566V32.8363H0V23.6614L10.0294 9.35566H10.147Z" fill="white"/>
<path d="M10.147 0H0V9.35566H10.147V0Z" fill="white"/>
<path d="M32.4909 20.6159V32.8352H22.3426V20.6012C22.3426 17.6246 21.088 14.9191 19.0407 12.9084C19.0407 12.9084 19.0407 12.9076 19.0407 12.9061C18.9537 12.8191 18.8631 12.7333 18.7724 12.6497C18.6805 12.565 18.5898 12.4836 18.4943 12.4034V12.4012C16.3122 10.5124 13.3766 9.35566 10.1495 9.35566V9.18735L16.0721 0.735394C18.3252 1.30586 20.4362 2.19489 22.3438 3.34373C28.4551 7.02409 32.4921 13.3851 32.4921 20.6159H32.4909Z" fill="white"/>
<path d="M131 12.0453C131 13.3896 129.856 14.4447 128.367 14.4447C126.878 14.4447 125.718 13.3896 125.718 12.0453C125.718 10.7011 126.894 9.67535 128.367 9.67535C129.84 9.67535 131 10.7304 131 12.0453ZM126.376 12.0453C126.376 13.1004 127.223 13.9386 128.383 13.9386C129.543 13.9386 130.342 13.1004 130.342 12.06C130.342 11.0196 129.511 10.1521 128.367 10.1521C127.223 10.1521 126.376 11.0049 126.376 12.0453ZM127.959 13.2879H127.364V10.918C127.599 10.875 127.928 10.8457 128.351 10.8457C128.838 10.8457 129.057 10.918 129.244 11.0196C129.385 11.1213 129.495 11.3088 129.495 11.5404C129.495 11.8002 129.276 12.0024 128.963 12.0894V12.1188C129.214 12.2057 129.355 12.3786 129.433 12.6971C129.511 13.0586 129.558 13.2032 129.622 13.2902H128.978C128.9 13.2032 128.853 12.9863 128.775 12.7118C128.729 12.452 128.572 12.3356 128.242 12.3356H127.96V13.2891L127.959 13.2879ZM128.257 11.9437C128.586 11.9437 128.852 11.842 128.852 11.5969C128.852 11.38 128.679 11.2354 128.303 11.2354C128.147 11.2354 128.036 11.2501 127.974 11.2648V11.9437H128.257Z" fill="white"/>
<path d="M50.0638 25.8439C50.0638 28.3607 48.204 29.8642 45.0895 29.8642C41.9751 29.8642 40.1152 28.3618 40.1152 25.8439V14.6322H36.6688V25.8439C36.6688 27.9021 37.4505 29.653 38.9293 30.9069C40.4179 32.1687 42.5191 32.8352 45.0062 32.8352C47.4934 32.8352 49.5676 32.1676 51.0464 30.9046C52.513 29.6519 53.2885 27.9009 53.2885 25.8427V14.6311H50.065V25.8427L50.0638 25.8439Z" fill="white"/>
<path d="M49.8322 9.71715H45.9239L42.8817 14.3362H46.0035L49.8322 9.71715Z" fill="white"/>
<path d="M70.8823 25.7919C70.8823 28.1506 68.6022 29.8631 65.462 29.8631C61.7289 29.8631 59.1204 27.3 59.1204 23.6298C59.1204 19.9596 61.6688 17.3456 65.462 17.3456C68.6046 17.3456 70.799 19.1044 70.799 21.6235V22.595H74.0102L74.0494 22.1251C74.069 21.8935 74.0788 21.6665 74.0788 21.4688C74.0788 19.4399 73.2003 17.6144 71.6064 16.3267C70.0467 15.0671 67.8659 14.3735 65.4632 14.3735C59.6081 14.3735 55.6752 18.0934 55.6752 23.6298C55.6752 26.3364 56.637 28.651 58.4564 30.3251C60.2145 31.9428 62.7029 32.8341 65.4632 32.8341C70.5049 32.8341 74.1633 29.9151 74.1633 25.8936V24.974H70.8835V25.7908L70.8823 25.7919Z" fill="white"/>
<path d="M80.2734 14.6322H76.8257V32.5788H89.9279V29.6067H80.2734V14.6322Z" fill="white"/>
<path d="M95.2305 24.8599H103.184V22.2482H95.2305V17.6043H105.054V14.6322H91.7841V32.5788H105.305V29.6067H95.2305V24.8599Z" fill="white"/>
<path d="M122.852 16.844C121.077 15.2512 118.605 14.3746 115.89 14.3746C113.175 14.3746 110.702 15.2512 108.927 16.844C107.061 18.5182 106.073 20.8294 106.073 23.5281C106.073 26.2268 107.059 28.6239 108.923 30.3251C110.697 31.9439 113.172 32.8363 115.89 32.8363C118.607 32.8363 121.082 31.945 122.856 30.3251C124.72 28.6239 125.706 26.2743 125.706 23.5281C125.706 20.782 124.72 18.5182 122.854 16.844H122.852ZM115.89 29.8642C112.199 29.8642 109.52 27.1994 109.52 23.5281C109.52 19.8568 112.139 17.3467 115.89 17.3467C119.64 17.3467 122.259 19.8884 122.259 23.5281C122.259 27.1678 119.581 29.8642 115.89 29.8642Z" fill="white"/>
<path d="M1.17618 38.3535V35.7192H0.107817V35.3803H2.65622V35.7192H1.58785V38.3535H1.17618Z" fill="white"/>
<path d="M4.96494 37.1425V37.3097H3.06834C3.09284 37.7841 3.40649 38.0824 3.88187 38.0824C4.28863 38.0824 4.56798 37.8926 4.60228 37.5989H4.96494C4.94043 38.0824 4.51407 38.3896 3.87697 38.3896C3.14675 38.3896 2.67628 37.9468 2.67628 37.2555C2.67628 36.5415 3.14185 36.0852 3.86717 36.0852C4.55817 36.0852 4.96494 36.4783 4.96494 37.1425ZM4.60228 37.0476V37.0205C4.60228 36.6274 4.33764 36.3924 3.87697 36.3924C3.4457 36.3924 3.15655 36.6229 3.08304 37.0476H4.60228Z" fill="white"/>
<path d="M6.61347 38.3896C5.90776 38.3896 5.45689 37.9423 5.45689 37.2374C5.45689 36.5325 5.91756 36.0852 6.64288 36.0852C7.28978 36.0852 7.70634 36.4466 7.70634 37.016H7.34369C7.33879 36.6455 7.06924 36.4105 6.64778 36.4105C6.1626 36.4105 5.84895 36.7313 5.84895 37.2374C5.84895 37.7435 6.1528 38.0643 6.62327 38.0643C7.06434 38.0643 7.34859 37.8338 7.35349 37.4678H7.71615C7.71615 38.0281 7.28488 38.3896 6.61347 38.3896Z" fill="white"/>
<path d="M8.33073 38.3535V36.1213H8.72279L8.71299 36.7223H8.71789C8.85021 36.3337 9.18837 36.0852 9.76666 36.0852C10.4038 36.0852 10.7811 36.424 10.7811 36.9572V38.3535H10.3891V37.0341C10.3891 36.6545 10.1538 36.4105 9.63434 36.4105C9.08055 36.4105 8.72279 36.7223 8.72279 37.2555V38.3535H8.33073Z" fill="white"/>
<path d="M12.5687 38.3896C11.8189 38.3896 11.3436 37.9423 11.3436 37.2419C11.3436 36.537 11.8189 36.0852 12.5687 36.0852C13.3186 36.0852 13.7939 36.537 13.7939 37.2419C13.7939 37.9423 13.3186 38.3896 12.5687 38.3896ZM12.5687 38.0643C13.0784 38.0643 13.4019 37.7435 13.4019 37.2419C13.4019 36.7358 13.0784 36.4105 12.5687 36.4105C12.0591 36.4105 11.7356 36.7358 11.7356 37.2419C11.7356 37.7435 12.0591 38.0643 12.5687 38.0643Z" fill="white"/>
<path d="M14.4046 38.3535V35.2221H14.7967V38.3535H14.4046Z" fill="white"/>
<path d="M16.4211 35.8909L16.8377 35.2583H17.2739L16.7495 35.8909H16.4211ZM16.6368 38.3896C15.887 38.3896 15.4116 37.9423 15.4116 37.2419C15.4116 36.537 15.887 36.0852 16.6368 36.0852C17.3866 36.0852 17.862 36.537 17.862 37.2419C17.862 37.9423 17.3866 38.3896 16.6368 38.3896ZM16.6368 38.0643C17.1465 38.0643 17.4699 37.7435 17.4699 37.2419C17.4699 36.7358 17.1465 36.4105 16.6368 36.4105C16.1271 36.4105 15.8036 36.7358 15.8036 37.2419C15.8036 37.7435 16.1271 38.0643 16.6368 38.0643Z" fill="white"/>
<path d="M20.0752 38.0462C20.5653 38.0462 20.8446 38.245 20.8446 38.5839C20.8446 39.0267 20.3888 39.3114 19.6243 39.3114C18.8255 39.3114 18.3501 39.0719 18.3501 38.6472C18.3501 38.4258 18.5413 38.2405 18.8451 38.2405V38.236C18.7226 38.1501 18.6491 38.0191 18.6491 37.8655C18.6491 37.6983 18.7275 37.5672 18.8206 37.5175V37.5085C18.5952 37.3729 18.4677 37.1515 18.4677 36.8804C18.4677 36.3969 18.8696 36.0852 19.4969 36.0852C19.7615 36.0852 19.987 36.1394 20.1585 36.2388V36.2343C20.1046 36.171 20.0654 36.0852 20.0654 35.9858C20.0654 35.805 20.2369 35.6875 20.5114 35.6875C20.6143 35.6875 20.6878 35.7011 20.7319 35.7146V36.0038C20.6976 35.9903 20.6388 35.9767 20.5604 35.9767C20.3986 35.9767 20.3104 36.0445 20.3104 36.1755C20.3104 36.2433 20.3349 36.3292 20.3741 36.4195C20.4771 36.5461 20.531 36.6997 20.531 36.8804C20.531 37.3639 20.1291 37.6757 19.4969 37.6757C19.3303 37.6757 19.1833 37.6531 19.0509 37.6124C19.0117 37.6486 18.9823 37.7164 18.9823 37.8022C18.9823 37.9513 19.0852 38.0462 19.2911 38.0462H20.0752ZM19.4969 36.3924C19.0999 36.3924 18.85 36.5822 18.85 36.8804C18.85 37.1786 19.0999 37.3684 19.4969 37.3684C19.8939 37.3684 20.1487 37.1786 20.1487 36.8804C20.1487 36.5822 19.8939 36.3924 19.4969 36.3924ZM19.6194 39.0041C20.2418 39.0041 20.4526 38.8324 20.4526 38.6201C20.4526 38.4438 20.3104 38.3535 20.0164 38.3535H19.296C18.9578 38.3535 18.7422 38.4348 18.7422 38.6381C18.7422 38.8867 19.0852 39.0041 19.6194 39.0041Z" fill="white"/>
<path d="M21.4013 35.8366V35.3803H21.8227V35.8366H21.4013ZM21.416 38.3535V36.1213H21.808V38.3535H21.416Z" fill="white"/>
<path d="M23.5795 38.3896C22.8738 38.3896 22.4229 37.9423 22.4229 37.2374C22.4229 36.5325 22.8836 36.0852 23.6089 36.0852C24.2558 36.0852 24.6724 36.4466 24.6724 37.016H24.3097C24.3048 36.6455 24.0353 36.4105 23.6138 36.4105C23.1286 36.4105 22.815 36.7313 22.815 37.2374C22.815 37.7435 23.1188 38.0643 23.5893 38.0643C24.0304 38.0643 24.3146 37.8338 24.3195 37.4678H24.6822C24.6822 38.0281 24.2509 38.3896 23.5795 38.3896Z" fill="white"/>
<path d="M26.424 38.3896C25.6741 38.3896 25.1988 37.9423 25.1988 37.2419C25.1988 36.537 25.6741 36.0852 26.424 36.0852C27.1738 36.0852 27.6491 36.537 27.6491 37.2419C27.6491 37.9423 27.1738 38.3896 26.424 38.3896ZM26.424 38.0643C26.9336 38.0643 27.2571 37.7435 27.2571 37.2419C27.2571 36.7358 26.9336 36.4105 26.424 36.4105C25.9143 36.4105 25.5908 36.7358 25.5908 37.2419C25.5908 37.7435 25.9143 38.0643 26.424 38.0643Z" fill="white"/>
<path d="M30.4185 38.3896C29.7176 38.3896 29.2668 37.9197 29.2668 37.2238C29.2668 36.5596 29.7177 36.0852 30.4528 36.0852C30.9575 36.0852 31.2663 36.2749 31.3545 36.5686H31.3594V35.2221H31.7515V38.3535H31.3594C31.3741 38.1547 31.379 37.9558 31.3839 37.757H31.3741C31.281 38.1411 30.9575 38.3896 30.4185 38.3896ZM30.4822 38.0643C31.0164 38.0643 31.3594 37.7525 31.3594 37.2645V37.1515C31.3594 36.6997 31.0213 36.4105 30.4871 36.4105C29.9823 36.4105 29.6588 36.7584 29.6588 37.2238C29.6588 37.7209 29.9823 38.0643 30.4822 38.0643Z" fill="white"/>
<path d="M33.5885 38.3896C32.8386 38.3896 32.3633 37.9423 32.3633 37.2419C32.3633 36.537 32.8386 36.0852 33.5885 36.0852C34.3383 36.0852 34.8136 36.537 34.8136 37.2419C34.8136 37.9423 34.3383 38.3896 33.5885 38.3896ZM33.5885 38.0643C34.0981 38.0643 34.4216 37.7435 34.4216 37.2419C34.4216 36.7358 34.0981 36.4105 33.5885 36.4105C33.0788 36.4105 32.7553 36.7358 32.7553 37.2419C32.7553 37.7435 33.0788 38.0643 33.5885 38.0643Z" fill="white"/>
<path d="M38.0534 38.3987C37.1174 38.3987 36.4313 37.8022 36.4313 36.8714C36.4313 35.936 37.0978 35.3351 38.0534 35.3351C38.8719 35.3351 39.4698 35.805 39.4698 36.4918C39.4698 36.5009 39.4698 36.5415 39.4649 36.6003H39.0875V36.5189C39.0875 36.0174 38.6415 35.6785 38.0534 35.6785C37.3526 35.6785 36.8429 36.1439 36.8429 36.8714C36.8429 37.5944 37.3771 38.0552 38.0534 38.0552C38.6464 38.0552 39.1022 37.7254 39.1022 37.2509V37.1967H39.4845V37.269C39.4845 37.9378 38.8768 38.3987 38.0534 38.3987Z" fill="white"/>
<path d="M42.4653 38.3535L42.1517 37.6305H40.4805L40.162 38.3535H39.7307L41.0931 35.3803H41.5832L42.9456 38.3535H42.4653ZM40.603 37.3504H42.0291L41.3283 35.7282H41.3185L40.603 37.3504Z" fill="white"/>
<path d="M43.4604 38.3535V35.3803H45.5531V35.7237H43.8721V36.772H45.3129V37.0612H43.8721V38.3535H43.4604Z" fill="white"/>
<path d="M45.8347 38.3535V37.8384H46.2562V38.3535H45.8347Z" fill="white"/>
</svg>
