<svg width="185" height="83" viewBox="0 0 185 83" fill="none" xmlns="http://www.w3.org/2000/svg">
<path d="M115.933 9.16835C137.154 11.1995 160.769 18.2934 174.812 30.2595C188.183 41.6208 188.582 57.4723 172.187 68.4338C156.313 79.0273 131.918 81.2576 112.152 82.133C91.3565 83.0421 70.129 82.1292 50.2828 78.1903C33.0039 74.7695 13.0773 68.9658 4.08157 56.7405C-2.11963 48.268 0.36139 38.3114 7.37427 30.0701C25.5245 8.75673 64.7798 -1.44238 96.1573 0.402466C117.599 1.65447 136.52 9.4209 149.968 21.3908C151.243 22.5269 148.617 23.9117 147.414 22.7894C121.106 -0.598004 76.4431 -2.56879 39.8416 11.838C25.8324 17.3611 12.0769 25.8984 5.96146 37.0865C-0.231125 48.42 6.90388 58.6459 18.6975 65.2526C35.9497 74.9119 59.4549 78.3579 80.9735 79.5704C103.432 80.856 127.42 80.3992 149.418 75.0309C159.314 72.6181 168.959 68.7582 175.582 62.5005C183.523 54.9615 183.567 45.223 177.838 37.4184C166.713 22.1847 138.588 13.9623 116.325 11.5823L115.285 11.478C113.296 11.2948 113.944 8.97855 115.933 9.16835Z" fill="#00FF47"/>
</svg>
